<svg width="100" height="100" xmlns="http://www.w3.org/2000/svg" viewBox="0 0 100 100" role="img" aria-labelledby="title desc"><title id="title">JARVIS Acadêmico symbol micro</title><desc id="desc">Abstract orbital convergence symbol composed of three curved trajectories and a central core.</desc><path id="part_0" d="M 45.743,33.407 C 45.600,33.505 45.576,33.862 45.576,34.246 C 45.575,34.630 45.687,35.222 45.741,35.714 C 45.795,36.206 45.863,36.726 45.900,37.199 C 45.936,37.672 45.948,38.103 45.957,38.550 C 45.967,38.996 45.964,39.430 45.958,39.877 C 45.952,40.324 45.941,40.777 45.923,41.230 C 45.905,41.683 45.881,42.140 45.850,42.595 C 45.818,43.050 45.781,43.507 45.735,43.958 C 45.689,44.410 45.636,44.860 45.575,45.304 C 45.514,45.749 45.445,46.188 45.369,46.624 C 45.292,47.060 45.208,47.490 45.116,47.918 C 45.024,48.345 44.925,48.768 44.818,49.188 C 44.712,49.608 44.597,50.023 44.476,50.436 C 44.355,50.848 44.226,51.257 44.091,51.664 C 43.955,52.070 43.812,52.472 43.662,52.873 C 43.513,53.273 43.356,53.670 43.193,54.065 C 43.029,54.461 42.859,54.853 42.682,55.243 C 42.505,55.634 42.322,56.022 42.132,56.408 C 41.942,56.794 41.745,57.179 41.543,57.561 C 41.341,57.944 41.132,58.325 40.919,58.704 C 40.707,59.083 40.489,59.460 40.269,59.836 C 40.049,60.211 39.824,60.584 39.598,60.956 C 39.372,61.327 39.143,61.697 38.914,62.064 C 38.684,62.432 38.455,62.799 38.223,63.161 C 37.990,63.523 37.760,63.879 37.519,64.238 C 37.278,64.597 37.025,64.910 36.777,65.313 C 36.528,65.716 36.154,66.293 36.027,66.656 C 35.901,67.019 35.847,67.406 36.019,67.488 C 36.191,67.571 36.698,67.301 37.058,67.152 C 37.418,67.002 37.806,66.794 38.178,66.589 C 38.550,66.385 38.920,66.157 39.289,65.924 C 39.658,65.691 40.026,65.441 40.393,65.190 C 40.760,64.940 41.125,64.678 41.491,64.421 C 41.856,64.165 42.220,63.903 42.585,63.651 C 42.949,63.399 43.313,63.150 43.677,62.908 C 44.041,62.665 44.405,62.428 44.771,62.195 C 45.136,61.962 45.502,61.735 45.870,61.512 C 46.237,61.288 46.606,61.070 46.978,60.855 C 47.350,60.640 47.723,60.430 48.100,60.224 C 48.476,60.017 48.856,59.814 49.238,59.616 C 49.620,59.418 50.006,59.223 50.394,59.034 C 50.782,58.845 51.173,58.661 51.566,58.482 C 51.960,58.304 52.356,58.131 52.755,57.965 C 53.154,57.798 53.556,57.638 53.960,57.485 C 54.364,57.332 54.771,57.185 55.180,57.046 C 55.589,56.908 56.001,56.776 56.415,56.654 C 56.829,56.531 57.245,56.416 57.664,56.311 C 58.083,56.205 58.504,56.108 58.927,56.021 C 59.351,55.934 59.776,55.857 60.204,55.789 C 60.632,55.722 61.060,55.665 61.498,55.617 C 61.935,55.570 62.375,55.532 62.828,55.503 C 63.282,55.474 63.742,55.454 64.219,55.443 C 64.697,55.431 65.192,55.432 65.694,55.434 C 66.196,55.435 66.844,55.501 67.232,55.454 C 67.621,55.407 67.971,55.318 68.024,55.151 C 68.078,54.984 67.796,54.668 67.552,54.452 C 67.309,54.237 66.928,54.046 66.563,53.858 C 66.198,53.670 65.764,53.508 65.363,53.326 C 64.961,53.143 64.551,52.958 64.153,52.762 C 63.755,52.565 63.362,52.361 62.974,52.148 C 62.586,51.936 62.203,51.715 61.825,51.487 C 61.447,51.258 61.075,51.022 60.707,50.778 C 60.340,50.535 59.977,50.283 59.620,50.025 C 59.263,49.766 58.911,49.500 58.564,49.227 C 58.217,48.954 57.875,48.673 57.538,48.386 C 57.202,48.099 56.871,47.805 56.545,47.504 C 56.219,47.203 55.898,46.896 55.582,46.582 C 55.267,46.268 54.956,45.947 54.651,45.621 C 54.346,45.294 54.047,44.961 53.752,44.622 C 53.458,44.283 53.169,43.937 52.886,43.588 C 52.602,43.239 52.324,42.884 52.053,42.527 C 51.781,42.170 51.515,41.808 51.255,41.446 C 50.995,41.084 50.741,40.719 50.495,40.356 C 50.248,39.992 50.007,39.627 49.773,39.264 C 49.539,38.901 49.313,38.542 49.092,38.179 C 48.871,37.817 48.659,37.462 48.446,37.088 C 48.233,36.714 48.027,36.336 47.815,35.937 C 47.603,35.537 47.404,35.070 47.173,34.690 C 46.942,34.311 46.669,33.876 46.430,33.662 C 46.192,33.448 45.885,33.310 45.743,33.407 Z" fill="#8A83DA"/><path id="part_1" d="M 48.358,12.164 C 47.629,12.229 46.907,12.307 46.201,12.418 C 45.496,12.528 44.808,12.665 44.124,12.828 C 43.441,12.990 42.767,13.180 42.099,13.391 C 41.432,13.602 40.767,13.836 40.119,14.094 C 39.471,14.352 38.832,14.633 38.210,14.940 C 37.587,15.247 36.983,15.577 36.384,15.936 C 35.786,16.295 35.202,16.679 34.620,17.093 C 34.037,17.506 33.457,17.951 32.889,18.419 C 32.320,18.887 31.750,19.388 31.210,19.903 C 30.670,20.419 30.138,20.960 29.648,21.512 C 29.158,22.063 28.697,22.632 28.270,23.210 C 27.842,23.787 27.452,24.378 27.082,24.976 C 26.712,25.575 26.373,26.185 26.049,26.803 C 25.725,27.420 25.419,28.045 25.137,28.681 C 24.855,29.316 24.589,29.959 24.357,30.616 C 24.124,31.273 23.919,31.943 23.741,32.623 C 23.564,33.302 23.418,33.993 23.291,34.692 C 23.164,35.390 23.053,36.089 22.979,36.813 C 22.905,37.536 22.862,38.288 22.845,39.034 C 22.829,39.780 22.844,40.546 22.879,41.288 C 22.915,42.031 22.974,42.769 23.059,43.489 C 23.145,44.209 23.253,44.916 23.391,45.608 C 23.529,46.301 23.696,46.975 23.886,47.644 C 24.077,48.313 24.298,48.963 24.532,49.622 C 24.765,50.280 25.004,50.949 25.287,51.597 C 25.569,52.245 25.907,53.115 26.226,53.510 C 26.545,53.906 27.021,54.275 27.202,53.971 C 27.383,53.668 27.263,52.434 27.312,51.689 C 27.360,50.944 27.411,50.220 27.492,49.502 C 27.573,48.784 27.672,48.080 27.800,47.381 C 27.928,46.682 28.079,45.988 28.258,45.308 C 28.437,44.629 28.642,43.958 28.874,43.302 C 29.105,42.646 29.365,42.006 29.648,41.373 C 29.930,40.739 30.239,40.119 30.569,39.502 C 30.898,38.886 31.250,38.274 31.624,37.673 C 31.998,37.072 32.393,36.474 32.815,35.895 C 33.236,35.315 33.681,34.745 34.153,34.199 C 34.625,33.652 35.127,33.121 35.647,32.615 C 36.167,32.110 36.714,31.623 37.271,31.165 C 37.829,30.706 38.407,30.270 38.993,29.863 C 39.578,29.456 40.176,29.076 40.783,28.721 C 41.390,28.366 42.008,28.039 42.634,27.735 C 43.261,27.431 43.897,27.154 44.542,26.899 C 45.188,26.644 45.842,26.414 46.506,26.204 C 47.171,25.995 47.845,25.808 48.531,25.642 C 49.216,25.477 49.913,25.327 50.620,25.211 C 51.328,25.094 52.047,24.999 52.776,24.943 C 53.505,24.888 54.253,24.868 54.995,24.878 C 55.736,24.888 56.491,24.936 57.223,25.004 C 57.955,25.072 58.680,25.167 59.386,25.284 C 60.092,25.401 60.780,25.540 61.460,25.705 C 62.140,25.871 62.806,26.061 63.467,26.277 C 64.128,26.493 64.781,26.737 65.426,27.001 C 66.071,27.265 66.708,27.554 67.336,27.860 C 67.964,28.166 68.582,28.491 69.192,28.835 C 69.802,29.180 70.403,29.541 70.995,29.925 C 71.588,30.310 72.175,30.708 72.747,31.142 C 73.318,31.577 73.891,32.022 74.424,32.532 C 74.956,33.042 75.428,33.704 75.940,34.202 C 76.453,34.700 77.143,35.493 77.501,35.518 C 77.859,35.542 78.073,34.909 78.089,34.350 C 78.104,33.792 77.781,32.855 77.594,32.165 C 77.408,31.476 77.198,30.863 76.967,30.213 C 76.736,29.563 76.486,28.906 76.210,28.265 C 75.933,27.624 75.636,26.987 75.310,26.368 C 74.984,25.748 74.634,25.143 74.254,24.548 C 73.874,23.954 73.467,23.372 73.028,22.800 C 72.589,22.229 72.116,21.664 71.620,21.118 C 71.125,20.573 70.595,20.035 70.055,19.528 C 69.514,19.022 68.948,18.531 68.379,18.078 C 67.809,17.625 67.227,17.203 66.637,16.808 C 66.047,16.414 65.449,16.054 64.840,15.713 C 64.232,15.371 63.614,15.056 62.985,14.759 C 62.357,14.461 61.718,14.179 61.068,13.927 C 60.418,13.676 59.757,13.443 59.085,13.250 C 58.413,13.056 57.727,12.911 57.035,12.767 C 56.344,12.622 55.645,12.495 54.937,12.381 C 54.229,12.266 53.514,12.140 52.787,12.081 C 52.060,12.023 51.312,12.017 50.574,12.031 C 49.836,12.044 49.087,12.100 48.358,12.164 Z" fill="#8A83DA"/><path id="part_2" d="M 58.892,36.937 C 58.181,37.000 56.968,37.000 56.726,37.197 C 56.485,37.394 56.993,37.866 57.442,38.121 C 57.891,38.375 58.783,38.505 59.422,38.725 C 60.062,38.946 60.671,39.183 61.280,39.446 C 61.889,39.708 62.480,39.994 63.076,40.303 C 63.671,40.612 64.268,40.944 64.854,41.300 C 65.441,41.655 66.026,42.034 66.594,42.436 C 67.162,42.837 67.723,43.261 68.262,43.707 C 68.800,44.153 69.326,44.622 69.823,45.112 C 70.321,45.602 70.800,46.114 71.246,46.647 C 71.692,47.179 72.111,47.737 72.497,48.308 C 72.883,48.879 73.239,49.474 73.563,50.075 C 73.886,50.676 74.178,51.293 74.439,51.914 C 74.699,52.535 74.927,53.161 75.125,53.801 C 75.322,54.441 75.488,55.087 75.624,55.755 C 75.761,56.422 75.868,57.109 75.943,57.804 C 76.018,58.499 76.065,59.218 76.076,59.925 C 76.087,60.632 76.064,61.348 76.008,62.046 C 75.952,62.744 75.857,63.434 75.742,64.114 C 75.627,64.795 75.479,65.466 75.316,66.128 C 75.154,66.790 74.968,67.443 74.766,68.087 C 74.563,68.731 74.340,69.366 74.100,69.990 C 73.859,70.615 73.603,71.230 73.323,71.836 C 73.044,72.442 72.748,73.038 72.422,73.626 C 72.096,74.215 71.749,74.795 71.369,75.368 C 70.989,75.940 70.577,76.508 70.143,77.062 C 69.709,77.616 69.245,78.162 68.765,78.690 C 68.285,79.217 67.779,79.734 67.263,80.227 C 66.747,80.720 66.210,81.199 65.668,81.650 C 65.125,82.100 64.567,82.532 64.008,82.933 C 63.448,83.333 62.887,83.708 62.312,84.053 C 61.737,84.397 61.168,84.711 60.556,85.002 C 59.944,85.293 59.268,85.540 58.640,85.799 C 58.013,86.058 57.004,86.281 56.790,86.558 C 56.577,86.835 56.901,87.255 57.358,87.460 C 57.816,87.664 58.813,87.702 59.534,87.786 C 60.255,87.870 60.974,87.930 61.683,87.966 C 62.392,88.002 63.083,88.018 63.789,88.001 C 64.494,87.984 65.214,87.938 65.917,87.864 C 66.620,87.790 67.328,87.685 68.008,87.556 C 68.688,87.427 69.349,87.269 69.999,87.090 C 70.649,86.911 71.280,86.705 71.909,86.483 C 72.538,86.261 73.158,86.020 73.773,85.757 C 74.388,85.494 74.999,85.215 75.600,84.907 C 76.200,84.600 76.795,84.271 77.377,83.912 C 77.959,83.554 78.534,83.167 79.093,82.756 C 79.651,82.346 80.200,81.907 80.729,81.450 C 81.258,80.993 81.775,80.510 82.269,80.013 C 82.763,79.515 83.241,78.995 83.694,78.463 C 84.147,77.931 84.581,77.381 84.987,76.821 C 85.393,76.261 85.776,75.686 86.131,75.104 C 86.485,74.522 86.811,73.929 87.113,73.327 C 87.415,72.726 87.690,72.114 87.941,71.493 C 88.193,70.872 88.419,70.242 88.623,69.602 C 88.827,68.962 89.007,68.313 89.166,67.652 C 89.325,66.992 89.462,66.321 89.577,65.640 C 89.692,64.959 89.789,64.265 89.856,63.567 C 89.924,62.869 89.969,62.160 89.981,61.452 C 89.994,60.744 89.976,60.025 89.931,59.319 C 89.886,58.614 89.810,57.905 89.710,57.217 C 89.611,56.530 89.482,55.856 89.332,55.195 C 89.182,54.533 89.005,53.888 88.809,53.247 C 88.612,52.605 88.394,51.972 88.152,51.344 C 87.910,50.717 87.650,50.091 87.357,49.480 C 87.064,48.870 86.748,48.266 86.396,47.682 C 86.043,47.099 85.657,46.528 85.243,45.979 C 84.828,45.430 84.379,44.897 83.908,44.389 C 83.437,43.880 82.936,43.391 82.419,42.927 C 81.901,42.464 81.357,42.022 80.802,41.610 C 80.246,41.197 79.669,40.808 79.084,40.450 C 78.500,40.092 77.900,39.763 77.294,39.463 C 76.688,39.164 76.072,38.897 75.448,38.652 C 74.825,38.406 74.193,38.190 73.553,37.993 C 72.913,37.795 72.267,37.619 71.608,37.466 C 70.950,37.313 70.285,37.180 69.602,37.074 C 68.920,36.968 68.223,36.887 67.514,36.830 C 66.806,36.772 66.077,36.744 65.351,36.728 C 64.626,36.713 63.887,36.721 63.160,36.736 C 62.433,36.751 61.701,36.785 60.990,36.818 C 60.279,36.851 59.602,36.874 58.892,36.937 Z" fill="#8A83DA"/><path id="part_3" d="M 16.806,42.120 C 16.489,42.150 15.844,42.869 15.404,43.405 C 14.964,43.941 14.548,44.730 14.168,45.338 C 13.789,45.946 13.448,46.458 13.127,47.051 C 12.807,47.644 12.516,48.261 12.245,48.896 C 11.974,49.532 11.728,50.205 11.500,50.865 C 11.272,51.524 11.062,52.187 10.878,52.853 C 10.693,53.519 10.525,54.175 10.392,54.859 C 10.259,55.544 10.153,56.239 10.080,56.959 C 10.008,57.679 9.972,58.433 9.955,59.177 C 9.937,59.920 9.948,60.683 9.974,61.423 C 10.000,62.163 10.040,62.898 10.110,63.616 C 10.180,64.334 10.269,65.040 10.394,65.731 C 10.519,66.422 10.676,67.097 10.859,67.762 C 11.042,68.427 11.257,69.077 11.493,69.722 C 11.729,70.368 11.990,71.005 12.272,71.636 C 12.555,72.266 12.858,72.892 13.186,73.507 C 13.513,74.122 13.862,74.730 14.236,75.325 C 14.609,75.920 15.006,76.506 15.427,77.078 C 15.848,77.649 16.293,78.210 16.763,78.753 C 17.233,79.297 17.729,79.828 18.247,80.339 C 18.765,80.850 19.314,81.348 19.872,81.819 C 20.431,82.289 21.014,82.743 21.598,83.163 C 22.183,83.583 22.780,83.977 23.379,84.339 C 23.978,84.701 24.579,85.030 25.193,85.333 C 25.806,85.637 26.425,85.909 27.060,86.159 C 27.695,86.408 28.342,86.631 29.003,86.831 C 29.664,87.030 30.339,87.205 31.026,87.356 C 31.714,87.507 32.416,87.635 33.126,87.736 C 33.836,87.837 34.561,87.916 35.287,87.962 C 36.013,88.007 36.751,88.025 37.482,88.010 C 38.214,87.994 38.954,87.943 39.677,87.869 C 40.399,87.795 41.120,87.689 41.818,87.565 C 42.516,87.440 43.195,87.294 43.864,87.121 C 44.533,86.949 45.184,86.754 45.831,86.530 C 46.478,86.306 47.117,86.056 47.748,85.777 C 48.378,85.499 49.004,85.191 49.617,84.858 C 50.230,84.524 50.835,84.162 51.425,83.775 C 52.015,83.387 52.594,82.973 53.156,82.533 C 53.718,82.093 54.267,81.626 54.796,81.135 C 55.324,80.644 55.838,80.124 56.328,79.585 C 56.818,79.046 57.291,78.476 57.735,77.902 C 58.178,77.328 58.601,76.731 58.989,76.142 C 59.378,75.553 59.737,74.962 60.064,74.366 C 60.391,73.770 60.681,73.197 60.952,72.567 C 61.222,71.937 61.487,71.264 61.688,70.585 C 61.888,69.905 62.287,68.823 62.156,68.489 C 62.024,68.154 61.386,68.289 60.901,68.579 C 60.415,68.869 59.788,69.715 59.243,70.229 C 58.699,70.743 58.193,71.227 57.633,71.663 C 57.074,72.099 56.482,72.478 55.887,72.845 C 55.292,73.211 54.679,73.545 54.063,73.864 C 53.447,74.182 52.825,74.486 52.191,74.755 C 51.556,75.024 50.915,75.271 50.258,75.478 C 49.601,75.685 48.934,75.856 48.250,75.997 C 47.566,76.137 46.869,76.242 46.153,76.323 C 45.438,76.405 44.697,76.460 43.958,76.487 C 43.219,76.514 42.456,76.517 41.718,76.484 C 40.981,76.450 40.246,76.384 39.536,76.285 C 38.825,76.187 38.135,76.050 37.456,75.892 C 36.778,75.733 36.116,75.545 35.464,75.335 C 34.811,75.126 34.172,74.895 33.540,74.635 C 32.908,74.374 32.287,74.090 31.672,73.771 C 31.057,73.452 30.448,73.102 29.850,72.722 C 29.252,72.343 28.660,71.929 28.085,71.494 C 27.511,71.060 26.946,70.596 26.403,70.115 C 25.860,69.635 25.332,69.130 24.827,68.612 C 24.321,68.093 23.834,67.553 23.370,67.002 C 22.906,66.451 22.461,65.881 22.041,65.303 C 21.622,64.725 21.223,64.131 20.851,63.531 C 20.478,62.932 20.129,62.320 19.807,61.704 C 19.485,61.088 19.188,60.465 18.918,59.836 C 18.649,59.206 18.407,58.575 18.187,57.927 C 17.968,57.280 17.776,56.625 17.603,55.952 C 17.430,55.280 17.286,54.587 17.149,53.893 C 17.012,53.199 16.893,52.489 16.782,51.789 C 16.672,51.089 16.514,50.399 16.484,49.691 C 16.455,48.983 16.543,48.252 16.606,47.543 C 16.669,46.834 16.747,46.159 16.864,45.439 C 16.980,44.719 17.315,43.775 17.305,43.221 C 17.296,42.668 17.123,42.089 16.806,42.120 Z" fill="#8A83DA"/></svg>