<svg width="100" height="100" xmlns="http://www.w3.org/2000/svg" viewBox="0 0 100 100" role="img" aria-labelledby="title desc"><title id="title">JARVIS Acadêmico symbol lavender</title><desc id="desc">Abstract orbital convergence symbol composed of three curved trajectories and a central core.</desc><path id="part_0" d="M 45.944,33.423 C 45.871,33.443 45.860,34.029 45.879,34.373 C 45.898,34.717 45.997,35.125 46.058,35.485 C 46.119,35.845 46.211,36.170 46.246,36.532 C 46.281,36.893 46.273,37.272 46.269,37.653 C 46.265,38.034 46.230,38.431 46.223,38.817 C 46.216,39.203 46.219,39.589 46.225,39.971 C 46.231,40.353 46.255,40.729 46.259,41.106 C 46.264,41.484 46.270,41.861 46.250,42.235 C 46.230,42.609 46.188,42.988 46.139,43.350 C 46.089,43.713 45.999,44.051 45.952,44.410 C 45.905,44.770 45.884,45.138 45.858,45.508 C 45.831,45.878 45.842,46.267 45.794,46.629 C 45.746,46.990 45.653,47.331 45.571,47.677 C 45.490,48.024 45.393,48.364 45.305,48.708 C 45.217,49.052 45.133,49.399 45.044,49.742 C 44.954,50.086 44.865,50.430 44.767,50.771 C 44.670,51.111 44.569,51.449 44.458,51.784 C 44.348,52.119 44.229,52.450 44.106,52.780 C 43.982,53.110 43.849,53.436 43.718,53.763 C 43.588,54.089 43.456,54.415 43.322,54.740 C 43.188,55.065 43.054,55.389 42.914,55.712 C 42.774,56.034 42.632,56.356 42.484,56.675 C 42.335,56.995 42.182,57.313 42.024,57.628 C 41.865,57.944 41.702,58.258 41.533,58.569 C 41.364,58.880 41.189,59.189 41.010,59.494 C 40.831,59.800 40.645,60.102 40.457,60.404 C 40.269,60.706 40.077,61.005 39.885,61.306 C 39.693,61.607 39.498,61.907 39.307,62.210 C 39.115,62.513 38.923,62.818 38.734,63.123 C 38.545,63.427 38.357,63.733 38.171,64.036 C 37.986,64.338 37.803,64.639 37.620,64.937 C 37.436,65.235 37.276,65.513 37.070,65.823 C 36.864,66.134 36.522,66.545 36.386,66.799 C 36.249,67.053 36.133,67.346 36.252,67.348 C 36.371,67.350 36.808,67.000 37.099,66.810 C 37.391,66.620 37.701,66.409 38.002,66.209 C 38.303,66.008 38.604,65.807 38.904,65.607 C 39.205,65.406 39.504,65.205 39.803,65.005 C 40.101,64.805 40.398,64.604 40.695,64.404 C 40.992,64.205 41.289,64.005 41.586,63.806 C 41.883,63.608 42.180,63.410 42.479,63.213 C 42.777,63.016 43.077,62.819 43.378,62.625 C 43.678,62.431 43.980,62.238 44.283,62.049 C 44.586,61.860 44.890,61.673 45.195,61.490 C 45.500,61.306 45.807,61.127 46.114,60.949 C 46.421,60.772 46.729,60.598 47.037,60.423 C 47.345,60.249 47.654,60.077 47.963,59.904 C 48.272,59.732 48.581,59.558 48.891,59.388 C 49.201,59.217 49.512,59.047 49.824,58.882 C 50.137,58.718 50.450,58.555 50.767,58.399 C 51.083,58.244 51.402,58.094 51.722,57.949 C 52.043,57.804 52.366,57.666 52.691,57.531 C 53.015,57.395 53.341,57.264 53.669,57.137 C 53.998,57.010 54.325,56.880 54.659,56.768 C 54.994,56.656 55.333,56.555 55.676,56.465 C 56.020,56.376 56.373,56.313 56.721,56.232 C 57.068,56.151 57.412,56.063 57.759,55.980 C 58.105,55.896 58.447,55.802 58.799,55.731 C 59.150,55.661 59.507,55.603 59.867,55.555 C 60.227,55.507 60.600,55.492 60.960,55.442 C 61.320,55.391 61.669,55.308 62.028,55.253 C 62.386,55.197 62.741,55.132 63.112,55.108 C 63.482,55.084 63.867,55.104 64.248,55.110 C 64.629,55.116 65.012,55.142 65.397,55.146 C 65.782,55.149 66.163,55.136 66.557,55.131 C 66.951,55.127 67.603,55.166 67.759,55.118 C 67.916,55.069 67.682,54.956 67.495,54.842 C 67.308,54.727 66.949,54.575 66.639,54.430 C 66.330,54.284 65.974,54.124 65.639,53.968 C 65.305,53.811 64.958,53.650 64.633,53.491 C 64.307,53.332 63.995,53.175 63.685,53.014 C 63.375,52.853 63.076,52.691 62.774,52.523 C 62.472,52.355 62.175,52.183 61.873,52.004 C 61.571,51.824 61.266,51.638 60.963,51.444 C 60.661,51.251 60.356,51.051 60.056,50.844 C 59.756,50.637 59.458,50.422 59.165,50.202 C 58.873,49.982 58.586,49.753 58.301,49.523 C 58.016,49.292 57.736,49.055 57.456,48.819 C 57.175,48.583 56.898,48.342 56.618,48.105 C 56.338,47.867 56.054,47.634 55.778,47.394 C 55.502,47.153 55.221,46.919 54.962,46.662 C 54.702,46.405 54.462,46.130 54.222,45.853 C 53.982,45.576 53.757,45.285 53.522,45.001 C 53.287,44.716 53.050,44.433 52.815,44.149 C 52.580,43.865 52.342,43.582 52.112,43.297 C 51.881,43.011 51.651,42.726 51.430,42.437 C 51.209,42.148 50.994,41.857 50.785,41.563 C 50.576,41.269 50.375,40.973 50.178,40.674 C 49.981,40.376 49.790,40.074 49.601,39.772 C 49.413,39.469 49.229,39.163 49.047,38.857 C 48.864,38.551 48.685,38.242 48.505,37.936 C 48.324,37.629 48.146,37.322 47.964,37.017 C 47.781,36.713 47.597,36.412 47.412,36.111 C 47.226,35.810 47.033,35.521 46.851,35.211 C 46.669,34.901 46.468,34.549 46.317,34.251 C 46.166,33.952 46.017,33.402 45.944,33.423 Z" fill="#8A83DA"/><path id="part_1" d="M 48.660,12.120 C 48.058,12.171 47.474,12.264 46.894,12.366 C 46.314,12.469 45.750,12.614 45.178,12.737 C 44.606,12.860 44.023,12.955 43.462,13.105 C 42.901,13.255 42.363,13.459 41.813,13.637 C 41.264,13.815 40.700,13.956 40.167,14.173 C 39.633,14.389 39.133,14.684 38.614,14.936 C 38.095,15.188 37.560,15.400 37.054,15.684 C 36.549,15.968 36.067,16.310 35.582,16.642 C 35.097,16.974 34.620,17.324 34.142,17.674 C 33.664,18.024 33.172,18.345 32.714,18.743 C 32.256,19.142 31.837,19.624 31.395,20.063 C 30.953,20.502 30.490,20.933 30.063,21.379 C 29.636,21.825 29.212,22.274 28.831,22.739 C 28.451,23.205 28.108,23.685 27.780,24.172 C 27.453,24.659 27.146,25.155 26.865,25.662 C 26.584,26.169 26.351,26.695 26.095,27.212 C 25.839,27.729 25.569,28.240 25.330,28.764 C 25.091,29.288 24.863,29.816 24.662,30.356 C 24.461,30.896 24.284,31.445 24.124,32.003 C 23.965,32.560 23.840,33.131 23.707,33.699 C 23.573,34.266 23.451,34.839 23.325,35.410 C 23.199,35.980 23.006,36.523 22.948,37.123 C 22.891,37.723 22.969,38.386 22.978,39.012 C 22.988,39.637 22.991,40.258 23.006,40.875 C 23.021,41.492 23.012,42.115 23.066,42.715 C 23.120,43.315 23.221,43.898 23.328,44.476 C 23.435,45.055 23.579,45.618 23.709,46.188 C 23.838,46.757 23.935,47.340 24.106,47.892 C 24.278,48.444 24.536,48.961 24.739,49.499 C 24.942,50.036 25.097,50.593 25.325,51.117 C 25.553,51.641 25.867,52.179 26.106,52.643 C 26.346,53.107 26.657,54.000 26.765,53.901 C 26.872,53.802 26.756,52.666 26.753,52.049 C 26.750,51.432 26.685,50.794 26.746,50.199 C 26.807,49.604 27.008,49.058 27.119,48.480 C 27.230,47.902 27.306,47.310 27.412,46.731 C 27.518,46.152 27.631,45.576 27.757,45.005 C 27.882,44.434 27.999,43.859 28.166,43.305 C 28.333,42.751 28.528,42.209 28.759,41.682 C 28.991,41.155 29.298,40.659 29.556,40.143 C 29.814,39.627 30.027,39.092 30.307,38.586 C 30.587,38.079 30.922,37.595 31.236,37.103 C 31.550,36.610 31.851,36.114 32.191,35.632 C 32.530,35.149 32.896,34.677 33.274,34.207 C 33.651,33.736 34.043,33.241 34.456,32.807 C 34.870,32.374 35.312,32.007 35.755,31.605 C 36.199,31.204 36.649,30.771 37.119,30.398 C 37.588,30.024 38.087,29.701 38.573,29.367 C 39.059,29.032 39.543,28.708 40.035,28.392 C 40.526,28.076 41.002,27.723 41.520,27.470 C 42.038,27.217 42.613,27.099 43.143,26.875 C 43.672,26.650 44.167,26.339 44.700,26.122 C 45.232,25.904 45.789,25.745 46.340,25.569 C 46.890,25.394 47.439,25.215 48.002,25.069 C 48.564,24.923 49.135,24.798 49.715,24.694 C 50.295,24.590 50.880,24.500 51.480,24.444 C 52.080,24.388 52.698,24.371 53.315,24.358 C 53.933,24.345 54.562,24.368 55.185,24.366 C 55.807,24.365 56.452,24.290 57.051,24.347 C 57.649,24.405 58.193,24.610 58.774,24.712 C 59.356,24.815 59.959,24.860 60.541,24.960 C 61.122,25.061 61.691,25.191 62.262,25.317 C 62.833,25.442 63.417,25.537 63.966,25.715 C 64.516,25.892 65.028,26.160 65.559,26.383 C 66.090,26.605 66.627,26.810 67.152,27.048 C 67.677,27.285 68.189,27.553 68.706,27.808 C 69.224,28.063 69.749,28.298 70.256,28.578 C 70.763,28.857 71.261,29.159 71.749,29.485 C 72.236,29.812 72.717,30.150 73.180,30.537 C 73.643,30.925 74.064,31.412 74.526,31.809 C 74.987,32.205 75.538,32.501 75.949,32.916 C 76.361,33.332 76.638,33.970 76.995,34.302 C 77.351,34.635 77.969,35.109 78.089,34.911 C 78.209,34.713 77.861,33.691 77.715,33.115 C 77.570,32.538 77.390,32.002 77.216,31.450 C 77.041,30.899 76.881,30.342 76.668,29.807 C 76.455,29.272 76.157,28.772 75.938,28.240 C 75.718,27.708 75.602,27.134 75.350,26.615 C 75.099,26.096 74.760,25.614 74.429,25.127 C 74.099,24.641 73.705,24.181 73.367,23.698 C 73.029,23.215 72.770,22.700 72.401,22.230 C 72.032,21.760 71.582,21.324 71.151,20.878 C 70.720,20.433 70.262,19.984 69.815,19.556 C 69.368,19.129 68.934,18.694 68.470,18.312 C 68.006,17.931 67.520,17.588 67.029,17.269 C 66.538,16.949 66.016,16.705 65.522,16.394 C 65.028,16.083 64.566,15.697 64.065,15.403 C 63.564,15.108 63.044,14.859 62.517,14.626 C 61.991,14.394 61.446,14.205 60.905,14.007 C 60.364,13.809 59.824,13.610 59.271,13.439 C 58.719,13.268 58.161,13.112 57.592,12.982 C 57.023,12.851 56.443,12.747 55.858,12.656 C 55.273,12.565 54.662,12.536 54.081,12.435 C 53.501,12.333 52.972,12.108 52.376,12.045 C 51.780,11.983 51.124,12.049 50.505,12.061 C 49.885,12.074 49.262,12.070 48.660,12.120 Z" fill="#8A83DA"/><path id="part_2" d="M 59.275,37.126 C 58.692,37.185 57.779,37.252 57.529,37.342 C 57.279,37.432 57.461,37.540 57.773,37.664 C 58.085,37.788 58.871,37.910 59.400,38.087 C 59.928,38.263 60.432,38.504 60.943,38.722 C 61.454,38.941 61.963,39.161 62.466,39.398 C 62.969,39.635 63.463,39.893 63.959,40.144 C 64.456,40.396 64.964,40.619 65.446,40.906 C 65.928,41.193 66.390,41.528 66.849,41.868 C 67.309,42.207 67.750,42.592 68.204,42.940 C 68.658,43.289 69.126,43.580 69.574,43.960 C 70.022,44.339 70.500,44.781 70.894,45.218 C 71.288,45.655 71.584,46.128 71.937,46.582 C 72.290,47.035 72.693,47.471 73.014,47.939 C 73.334,48.407 73.587,48.904 73.861,49.391 C 74.135,49.878 74.416,50.363 74.659,50.863 C 74.902,51.363 75.117,51.875 75.317,52.392 C 75.517,52.910 75.698,53.436 75.859,53.970 C 76.020,54.504 76.199,55.031 76.283,55.597 C 76.366,56.163 76.295,56.793 76.360,57.367 C 76.425,57.941 76.623,58.462 76.674,59.041 C 76.725,59.621 76.680,60.248 76.666,60.844 C 76.651,61.440 76.640,62.036 76.587,62.615 C 76.535,63.194 76.451,63.759 76.351,64.318 C 76.250,64.877 76.104,65.418 75.984,65.969 C 75.864,66.520 75.769,67.081 75.629,67.624 C 75.488,68.166 75.324,68.699 75.140,69.224 C 74.955,69.748 74.730,70.255 74.522,70.770 C 74.314,71.284 74.129,71.808 73.892,72.311 C 73.655,72.814 73.357,73.291 73.101,73.785 C 72.844,74.280 72.651,74.800 72.351,75.277 C 72.052,75.754 71.634,76.182 71.306,76.647 C 70.978,77.113 70.736,77.616 70.383,78.070 C 70.029,78.523 69.600,78.936 69.186,79.366 C 68.773,79.796 68.326,80.226 67.900,80.650 C 67.474,81.074 67.071,81.528 66.630,81.912 C 66.190,82.297 65.718,82.618 65.257,82.957 C 64.796,83.297 64.332,83.627 63.865,83.948 C 63.397,84.269 62.935,84.603 62.450,84.884 C 61.966,85.165 61.461,85.399 60.957,85.634 C 60.452,85.868 59.934,86.074 59.422,86.291 C 58.911,86.508 58.224,86.773 57.888,86.934 C 57.553,87.095 57.208,87.144 57.410,87.257 C 57.613,87.371 58.545,87.495 59.104,87.614 C 59.662,87.733 60.185,87.918 60.762,87.972 C 61.339,88.025 61.962,87.932 62.566,87.933 C 63.170,87.934 63.793,87.997 64.385,87.975 C 64.976,87.954 65.542,87.868 66.117,87.806 C 66.692,87.743 67.277,87.708 67.834,87.600 C 68.390,87.492 68.911,87.301 69.454,87.160 C 69.996,87.019 70.559,86.927 71.087,86.752 C 71.615,86.578 72.108,86.316 72.624,86.113 C 73.141,85.909 73.678,85.755 74.186,85.532 C 74.694,85.309 75.189,85.052 75.675,84.775 C 76.161,84.497 76.624,84.167 77.101,83.867 C 77.578,83.568 78.068,83.300 78.535,82.978 C 79.002,82.657 79.449,82.292 79.904,81.939 C 80.358,81.587 80.813,81.242 81.263,80.865 C 81.713,80.487 82.213,80.103 82.603,79.674 C 82.993,79.244 83.238,78.738 83.603,78.288 C 83.968,77.838 84.441,77.430 84.794,76.975 C 85.147,76.520 85.424,76.034 85.721,75.556 C 86.018,75.078 86.311,74.599 86.577,74.109 C 86.844,73.619 87.086,73.118 87.319,72.614 C 87.552,72.110 87.757,71.594 87.973,71.083 C 88.189,70.572 88.439,70.074 88.615,69.546 C 88.791,69.019 88.907,68.466 89.030,67.916 C 89.153,67.366 89.250,66.806 89.354,66.248 C 89.458,65.691 89.556,65.132 89.653,64.571 C 89.751,64.009 89.884,63.456 89.941,62.879 C 89.997,62.301 89.994,61.696 89.993,61.106 C 89.991,60.516 89.987,59.917 89.932,59.339 C 89.877,58.762 89.758,58.205 89.663,57.642 C 89.568,57.080 89.463,56.524 89.360,55.967 C 89.256,55.409 89.187,54.837 89.044,54.296 C 88.901,53.754 88.686,53.242 88.500,52.719 C 88.315,52.195 88.151,51.662 87.931,51.152 C 87.711,50.643 87.426,50.160 87.179,49.661 C 86.933,49.163 86.720,48.650 86.451,48.161 C 86.183,47.671 85.904,47.186 85.567,46.725 C 85.230,46.264 84.792,45.845 84.429,45.393 C 84.066,44.942 83.795,44.419 83.388,44.016 C 82.982,43.613 82.444,43.342 81.990,42.974 C 81.537,42.607 81.125,42.159 80.669,41.811 C 80.212,41.462 79.730,41.178 79.252,40.885 C 78.773,40.591 78.287,40.314 77.796,40.050 C 77.305,39.786 76.813,39.523 76.304,39.300 C 75.796,39.077 75.265,38.908 74.746,38.710 C 74.228,38.512 73.725,38.274 73.193,38.110 C 72.660,37.946 72.100,37.846 71.550,37.724 C 71.000,37.603 70.447,37.491 69.891,37.383 C 69.334,37.274 68.786,37.139 68.212,37.076 C 67.638,37.012 67.043,37.014 66.447,37.001 C 65.850,36.989 65.235,36.998 64.634,37.002 C 64.032,37.005 63.440,37.024 62.839,37.022 C 62.238,37.020 61.621,36.972 61.027,36.990 C 60.433,37.007 59.858,37.067 59.275,37.126 Z" fill="#8A83DA"/><path id="part_3" d="M 16.807,42.201 C 16.679,42.136 16.085,43.058 15.720,43.511 C 15.355,43.964 14.949,44.439 14.619,44.921 C 14.289,45.404 14.040,45.914 13.739,46.405 C 13.439,46.897 13.070,47.360 12.816,47.872 C 12.562,48.383 12.423,48.942 12.217,49.473 C 12.011,50.004 11.777,50.523 11.579,51.058 C 11.381,51.593 11.195,52.132 11.030,52.680 C 10.864,53.229 10.697,53.775 10.587,54.347 C 10.476,54.919 10.471,55.535 10.369,56.110 C 10.267,56.685 10.035,57.203 9.976,57.795 C 9.916,58.386 10.008,59.040 10.012,59.657 C 10.016,60.275 9.998,60.883 9.997,61.499 C 9.996,62.115 9.943,62.763 10.005,63.355 C 10.067,63.946 10.255,64.483 10.371,65.051 C 10.487,65.619 10.574,66.199 10.700,66.763 C 10.826,67.327 10.955,67.891 11.126,68.436 C 11.298,68.982 11.524,69.505 11.730,70.036 C 11.935,70.568 12.127,71.105 12.359,71.626 C 12.591,72.146 12.864,72.649 13.122,73.159 C 13.380,73.669 13.613,74.190 13.907,74.684 C 14.202,75.179 14.559,75.648 14.891,76.127 C 15.222,76.606 15.537,77.092 15.897,77.559 C 16.257,78.026 16.642,78.482 17.052,78.931 C 17.461,79.379 17.917,79.816 18.354,80.248 C 18.792,80.681 19.226,81.125 19.678,81.524 C 20.129,81.923 20.593,82.290 21.064,82.642 C 21.534,82.994 22.020,83.311 22.503,83.635 C 22.985,83.959 23.460,84.301 23.959,84.586 C 24.457,84.870 24.983,85.089 25.495,85.342 C 26.007,85.596 26.502,85.888 27.028,86.107 C 27.555,86.325 28.102,86.492 28.652,86.653 C 29.202,86.813 29.775,86.919 30.329,87.070 C 30.883,87.221 31.408,87.444 31.976,87.562 C 32.543,87.679 33.142,87.708 33.733,87.773 C 34.323,87.837 34.916,87.922 35.521,87.951 C 36.125,87.980 36.746,87.950 37.361,87.947 C 37.976,87.944 38.619,87.995 39.211,87.934 C 39.803,87.874 40.346,87.701 40.914,87.583 C 41.482,87.466 42.045,87.339 42.616,87.228 C 43.187,87.118 43.784,87.072 44.339,86.923 C 44.895,86.774 45.415,86.542 45.946,86.336 C 46.478,86.130 47.009,85.922 47.528,85.688 C 48.048,85.454 48.559,85.204 49.064,84.932 C 49.568,84.661 50.064,84.368 50.553,84.058 C 51.042,83.748 51.521,83.410 51.996,83.071 C 52.471,82.733 52.941,82.401 53.403,82.026 C 53.865,81.651 54.329,81.246 54.770,80.822 C 55.212,80.398 55.646,79.932 56.050,79.481 C 56.455,79.031 56.824,78.579 57.198,78.118 C 57.571,77.658 57.963,77.200 58.291,76.719 C 58.618,76.237 58.862,75.721 59.163,75.229 C 59.465,74.737 59.842,74.277 60.099,73.767 C 60.357,73.257 60.506,72.702 60.709,72.170 C 60.913,71.638 61.110,71.109 61.319,70.572 C 61.529,70.036 62.016,69.143 61.969,68.950 C 61.921,68.757 61.408,69.121 61.034,69.413 C 60.660,69.704 60.171,70.289 59.725,70.699 C 59.280,71.110 58.821,71.499 58.360,71.877 C 57.899,72.254 57.442,72.638 56.960,72.965 C 56.479,73.292 55.970,73.550 55.472,73.837 C 54.974,74.123 54.484,74.429 53.972,74.682 C 53.460,74.935 52.931,75.146 52.401,75.356 C 51.871,75.565 51.338,75.766 50.794,75.941 C 50.249,76.116 49.699,76.275 49.136,76.405 C 48.573,76.535 47.989,76.615 47.417,76.722 C 46.845,76.829 46.299,77.000 45.702,77.046 C 45.104,77.091 44.450,77.002 43.830,76.995 C 43.211,76.989 42.601,77.000 41.986,77.005 C 41.370,77.009 40.731,77.080 40.139,77.022 C 39.547,76.964 39.002,76.777 38.434,76.656 C 37.866,76.536 37.297,76.423 36.731,76.299 C 36.166,76.175 35.590,76.076 35.041,75.913 C 34.492,75.749 33.971,75.518 33.437,75.318 C 32.903,75.118 32.352,74.960 31.838,74.714 C 31.323,74.467 30.848,74.126 30.351,73.838 C 29.853,73.549 29.340,73.299 28.854,72.982 C 28.368,72.666 27.901,72.298 27.435,71.938 C 26.969,71.577 26.509,71.220 26.058,70.819 C 25.607,70.418 25.170,69.968 24.730,69.534 C 24.290,69.100 23.833,68.663 23.419,68.217 C 23.005,67.770 22.617,67.319 22.246,66.857 C 21.875,66.394 21.520,65.924 21.195,65.442 C 20.870,64.960 20.598,64.456 20.298,63.964 C 19.997,63.472 19.667,62.992 19.392,62.489 C 19.117,61.986 18.894,61.461 18.647,60.947 C 18.400,60.433 18.126,59.930 17.908,59.403 C 17.691,58.877 17.509,58.336 17.343,57.788 C 17.178,57.240 17.063,56.670 16.915,56.115 C 16.767,55.560 16.586,55.018 16.455,54.456 C 16.324,53.894 16.200,53.329 16.129,52.742 C 16.058,52.155 16.079,51.529 16.030,50.934 C 15.981,50.339 15.841,49.759 15.834,49.170 C 15.826,48.582 15.933,47.994 15.985,47.400 C 16.037,46.807 16.062,46.193 16.147,45.610 C 16.231,45.027 16.381,44.471 16.491,43.903 C 16.601,43.335 16.936,42.267 16.807,42.201 Z" fill="#8A83DA"/></svg>